# xmcd
#
# Track frame offsets: 
#        150
#        19349
#        38060
#        53195
#        70780
#        91990
#        110337
#        128980
#        152941
#        178876
#
# Disc length: 2607 seconds
#
# Revision: 3
# Processed by: cddbd v1.5.2PL0 Copyright (c) Steve Scherf et al.
# Submitted via: ExactAudioCopyFreeDBPlugin 1.0
#
DISCID=860a2d0a
DTITLE=Willy Deville - Crow Jane Alley - Pistola {2013,RE,Eagle Record
DTITLE=s,EDGCD516} CD2
DYEAR=2008
DGENRE=Latin Blues Rock
TTITLE0=So So Real
TTITLE1=Been There Done That
TTITLE2=When I Get Home
TTITLE3=Louise
TTITLE4=The Band Played On
TTITLE5=You Got The World In Your Hands
TTITLE6=I Remember The First Time
TTITLE7=Stars That Speak
TTITLE8=I'm Gonna Do Something The Devil Never Did
TTITLE9=The Mountains Of Manhatten
EXTD=
EXTT0=
EXTT1=
EXTT2=
EXTT3=
EXTT4=
EXTT5=
EXTT6=
EXTT7=
EXTT8=
EXTT9=
PLAYORDER=
